HIERARCHY
ROOT Hips
{
  OFFSET 0.000000 0.000000 0.000000
  CHANNELS 6 Xposition Yposition Zposition Xrotation Yrotation Zrotation
  JOINT Spine
  {
    OFFSET 0.520878 23.793947 -2.439495
    CHANNELS 3 Xrotation Yrotation Zrotation
    JOINT Chest
    {
      OFFSET 0.520878 23.793947 -2.439495
      CHANNELS 3 Xrotation Yrotation Zrotation
      JOINT Neck
      {
        OFFSET 0.443188 7.591809 -3.735129
        CHANNELS 3 Xrotation Yrotation Zrotation
        JOINT Head
        {
          OFFSET 1.673544 5.873951 -7.488974
          CHANNELS 3 Xrotation Yrotation Zrotation
          End Site
          {
            OFFSET 0.502063 1.762185 -2.246692
          }
        }
      }
      JOINT LeftShoulder
      {
        OFFSET 16.319328 -1.544265 2.223764
        CHANNELS 3 Xrotation Yrotation Zrotation
        JOINT LeftArm
        {
          OFFSET 0.588390 -20.940018 -12.470122
          CHANNELS 3 Xrotation Yrotation Zrotation
          JOINT LeftForeArm
          {
            OFFSET -7.452203 11.043894 -20.793748
            CHANNELS 3 Xrotation Yrotation Zrotation
            JOINT LeftHand
            {
              OFFSET -1.706953 2.799572 -1.740932
              CHANNELS 3 Xrotation Yrotation Zrotation
              End Site
              {
                OFFSET -0.512086 0.839871 -0.522280
              }
            }
          }
        }
      }
      JOINT RightShoulder
      {
        OFFSET -16.319328 1.544265 -2.223764
        CHANNELS 3 Xrotation Yrotation Zrotation
        JOINT RightArm
        {
          OFFSET 1.020263 -19.568193 -11.297847
          CHANNELS 3 Xrotation Yrotation Zrotation
          JOINT RightForeArm
          {
            OFFSET 11.011937 7.390574 -20.442338
            CHANNELS 3 Xrotation Yrotation Zrotation
            JOINT RightHand
            {
              OFFSET 2.653103 1.945053 -2.368092
              CHANNELS 3 Xrotation Yrotation Zrotation
              End Site
              {
                OFFSET 0.795931 0.583516 -0.710427
              }
            }
          }
        }
      }
    }
  }
  JOINT LeftUpLeg
  {
    OFFSET 11.976339 0.068635 0.477129
    CHANNELS 3 Xrotation Yrotation Zrotation
    JOINT LeftLeg
    {
      OFFSET 7.702811 -40.666112 -8.595169
      CHANNELS 3 Xrotation Yrotation Zrotation
      JOINT LeftFoot
      {
        OFFSET 17.323279 -37.894955 6.510615
        CHANNELS 3 Xrotation Yrotation Zrotation
        End Site
        {
          OFFSET 5.196984 -11.368487 1.953185
        }
      }
    }
  }
  JOINT RightUpLeg
  {
    OFFSET -11.976339 -0.068635 -0.477129
    CHANNELS 3 Xrotation Yrotation Zrotation
    JOINT RightLeg
    {
      OFFSET -6.798754 -40.366094 -1.066918
      CHANNELS 3 Xrotation Yrotation Zrotation
      JOINT RightFoot
      {
        OFFSET -2.441711 -31.654414 25.762620
        CHANNELS 3 Xrotation Yrotation Zrotation
        End Site
        {
          OFFSET -0.732513 -9.496324 7.728786
        }
      }
    }
  }
}
MOTION
Frames: 14
Frame Time: 0.083333
0.000000 60.000000 0.000000 -0.393665 0.037573 0.258098 -0.393665 0.037573 0.258098 -0.008559 0.016047 0.029465 -0.152771 0.120134 0.055706 5.000000 0.000000 0.000000 1.470835 0.422758 -0.603395 1.742693 -0.038143 -0.148585 -16.438691 29.873230 65.281110 0.000000 0.000000 0.000000 0.763179 -0.221419 0.439485 1.542678 -0.068826 0.141333 0.000000 0.000000 0.000000 0.000000 0.000000 0.000000 0.069755 0.107540 -0.440390 -0.002526 -0.073021 -0.410452 0.000000 0.000000 0.000000 -0.435520 0.080224 -0.479478 0.902752 -0.531623 -0.597774 0.000000 0.000000 0.000000
0.000037 59.999877 -0.010318 -0.404701 0.038333 0.262239 -0.404701 0.038333 0.262239 -0.016451 0.017384 0.031072 -0.166278 0.124209 0.055573 5.000000 0.000000 0.000000 1.385822 0.393093 -0.555532 1.559122 -0.031743 -0.131756 -45.246116 29.543670 50.191312 0.000000 0.000000 0.000000 0.664188 -0.219284 0.426765 1.414253 -0.059242 0.131103 -37.776808 -26.929881 -49.259479 0.000000 0.000000 0.000000 0.074587 0.111641 -0.454770 -0.008923 -0.078454 -0.423876 0.000000 0.000000 0.000000 -0.460035 0.084069 -0.496061 0.935470 -0.550112 -0.620129 0.000000 0.000000 0.000000
0.000181 59.999465 -0.003714 -0.404627 0.038343 0.262357 -0.404627 0.038343 0.262357 -0.016698 0.017428 0.031127 -0.166720 0.124314 0.055548 5.000000 0.000000 0.000000 3.800480 1.026031 -1.424163 3.705057 -0.067403 -0.308830 -51.336591 28.825824 46.938404 0.000000 0.000000 0.000000 1.616232 -0.618705 1.179847 3.676897 -0.128180 0.351183 -34.108958 -26.972649 -49.568966 0.000000 0.000000 0.000000 0.074567 0.111746 -0.455285 -0.009107 -0.078643 -0.424440 0.000000 0.000000 0.000000 -0.460452 0.084140 -0.496741 0.936369 -0.550764 -0.620934 0.000000 0.000000 0.000000
0.000449 59.998762 0.013960 -1.344084 0.110321 0.694566 -1.344084 0.110321 0.694566 -0.346302 0.097439 0.144854 -0.854096 0.443904 0.133634 5.000000 0.000000 0.000000 5.413119 1.262370 -1.672069 3.312299 -0.079045 -0.285725 0.000000 0.000000 0.000000 0.000000 0.000000 0.000000 1.725359 -0.883096 1.630601 4.665563 -0.046411 0.492233 -40.548038 -25.713553 -47.351010 0.000000 0.000000 0.000000 0.307865 0.357015 -1.381609 -0.261080 -0.360576 -1.347216 0.000000 0.000000 0.000000 -1.675656 0.291135 -1.494187 2.950286 -1.713148 -1.966343 0.000000 0.000000 0.000000
0.000791 59.998145 -0.039427 -2.127308 0.155607 0.896701 -2.127308 0.155607 0.896701 -1.135373 0.236063 0.315885 -2.071899 0.801390 0.111598 5.000000 0.000000 0.000000 6.505431 1.205976 -1.504741 1.627219 -0.222023 -0.237257 -31.411921 30.285006 57.604590 0.000000 0.000000 0.000000 1.542838 -0.979056 1.782527 5.309902 0.189283 0.658045 -42.218356 -24.960722 -46.318290 0.000000 0.000000 0.000000 0.619977 0.624687 -2.325660 -0.877487 -0.832376 -2.350876 0.000000 0.000000 0.000000 -3.308048 0.546283 -2.565657 5.088794 -2.961254 -3.495545 0.000000 0.000000 0.000000
0.001030 59.997834 -0.170339 -1.147451 0.122725 0.857779 -1.147451 0.122725 0.857779 -1.283088 0.250212 0.322130 -2.389505 0.744545 -0.002259 5.000000 0.000000 0.000000 6.457596 1.018183 -1.227183 1.554529 -0.520909 -0.395270 -46.139072 29.562522 49.860010 0.000000 0.000000 0.000000 1.028675 -1.200938 2.130695 6.145748 0.414587 0.842488 -41.654273 -24.641305 -45.900533 0.000000 0.000000 0.000000 0.415056 0.710225 -2.924068 -0.946801 -0.965565 -2.889685 0.000000 0.000000 0.000000 -3.578792 0.586040 -3.491178 5.837070 -3.685649 -4.453174 0.000000 0.000000 0.000000
0.001141 59.997961 -0.224733 0.216010 0.062781 0.666163 0.216010 0.062781 0.666163 -1.393604 0.311165 0.420453 -2.651996 0.746542 -0.060126 5.000000 0.000000 0.000000 5.693819 0.690130 -0.788346 2.347358 -0.516564 -0.454806 -26.198528 29.455418 58.781779 0.000000 0.000000 0.000000 1.132023 -1.835133 3.196783 7.003266 0.294626 0.891426 -40.446382 -24.592038 -45.824325 0.000000 0.000000 0.000000 -0.261527 0.639533 -3.281606 -0.788389 -0.972532 -3.346506 0.000000 0.000000 0.000000 -2.506758 0.437069 -3.957412 5.289960 -4.023370 -4.924045 0.000000 0.000000 0.000000
0.001159 59.998290 -0.065599 -0.254329 0.044735 0.375727 -0.254329 0.044735 0.375727 -1.756128 0.338338 0.425321 -3.162778 0.656134 -0.228123 5.000000 0.000000 0.000000 5.500939 0.446401 -0.432063 1.292628 -0.471809 -0.348284 -50.342081 30.631469 49.603627 0.000000 0.000000 0.000000 2.387677 -2.792460 4.812053 7.345661 -0.138705 0.753545 -42.404997 -24.754893 -46.052592 0.000000 0.000000 0.000000 -0.502589 0.617598 -3.429476 -0.823380 -0.962216 -3.201722 0.000000 0.000000 0.000000 -1.934315 0.357299 -3.704842 4.200498 -3.993819 -4.898420 0.000000 0.000000 0.000000
0.000902 59.998314 0.409378 -2.157820 0.103888 0.463988 -2.157820 0.103888 0.463988 -2.287815 0.121204 -0.035057 -3.771978 -0.020059 -0.797326 5.000000 0.000000 0.000000 5.867887 0.321113 -0.223254 -0.401092 -0.596223 -0.282639 -56.914906 30.081638 46.402293 0.000000 0.000000 0.000000 4.261215 -3.492434 5.918305 6.780658 -0.441904 0.562585 -39.441993 -25.547141 -47.139944 0.000000 0.000000 0.000000 -0.205043 0.649409 -3.272146 -1.424317 -1.176398 -2.756165 0.000000 0.000000 0.000000 -0.952287 0.215374 -3.092276 2.319042 -3.744639 -4.582777 0.000000 0.000000 0.000000
0.000440 59.998123 1.382306 -2.233109 0.165165 0.939548 -2.233109 0.165165 0.939548 -1.934015 -0.202497 -0.573130 -3.417500 -0.858533 -1.269907 5.000000 0.000000 0.000000 6.589870 0.040628 0.223931 -0.220704 -0.813119 -0.409177 -48.916489 30.293736 49.735497 0.000000 0.000000 0.000000 6.260074 -4.166114 6.899149 7.030129 -0.733043 0.464764 -37.777506 -25.666551 -47.346087 0.000000 0.000000 0.000000 0.426385 0.688449 -2.826187 -1.083496 -0.836009 -1.809237 0.000000 0.000000 0.000000 -1.103176 0.221671 -1.897693 0.926057 -3.803011 -4.679083 0.000000 0.000000 0.000000
-0.000008 59.998245 2.821016 -2.599297 0.293237 1.851900 -2.599297 0.293237 1.851900 -1.435546 -0.477461 -1.044170 -2.894302 -1.595610 -1.686794 5.000000 0.000000 0.000000 6.764408 -1.190838 2.046082 0.169270 -0.887327 -0.478544 -46.085820 30.310688 50.919432 0.000000 0.000000 0.000000 7.741383 -4.928105 7.986898 7.806235 -1.038355 0.416051 -36.482546 -25.799144 -47.576771 0.000000 0.000000 0.000000 1.420908 0.636970 -1.653687 -0.707146 -0.320471 0.009418 0.000000 0.000000 0.000000 -1.981076 0.341659 -0.881365 -0.245147 -3.492744 -4.309100 0.000000 0.000000 0.000000
-0.000244 59.998448 4.380335 -3.463647 0.462569 2.885899 -3.463647 0.462569 2.885899 -1.114227 -0.717559 -1.478248 -2.432702 -2.365654 -2.152852 5.000000 0.000000 0.000000 7.539857 -1.441196 2.419833 0.351146 -0.801860 -0.448638 -41.658488 30.389592 52.934919 0.000000 0.000000 0.000000 7.905718 -5.323424 8.565996 7.950654 -1.082011 0.411557 -38.491903 -25.568569 -47.188236 0.000000 0.000000 0.000000 2.195034 0.368259 0.204422 -0.998858 -0.194778 1.448974 0.000000 0.000000 0.000000 -2.000988 0.339723 -0.448286 -0.905034 -3.066893 -3.808573 0.000000 0.000000 0.000000
-0.000387 59.998452 5.819356 -4.839469 0.586586 3.283213 -4.839469 0.586586 3.283213 -1.458283 -0.589915 -1.260212 -2.758772 -1.900691 -1.887112 5.000000 0.000000 0.000000 8.954006 -1.269910 2.172254 0.346227 -0.618270 -0.352225 -41.158379 30.637547 53.534945 0.000000 0.000000 0.000000 7.713566 -4.891898 7.922220 8.025489 -1.031533 0.441025 -42.525030 -24.543094 -45.782979 0.000000 0.000000 0.000000 2.618706 0.094799 1.712968 -1.307504 -0.381582 1.189985 0.000000 0.000000 0.000000 -1.908229 0.326772 -1.226786 -3.082885 -2.733975 -3.476313 0.000000 0.000000 0.000000
-0.000395 59.998098 7.082628 -6.971416 0.712111 3.389898 -6.971416 0.712111 3.389898 -2.024840 -0.216074 -0.595169 -3.471346 -0.676595 -1.153767 5.000000 0.000000 0.000000 9.979637 -1.892519 2.930509 -0.184962 -0.219579 -0.106600 -9.556043 28.846580 67.596839 0.000000 0.000000 0.000000 6.529978 -3.786619 6.303713 8.177488 -0.502886 0.690433 -44.977037 -23.380134 -44.443396 0.000000 0.000000 0.000000 3.119012 0.153045 1.836675 -1.874779 -0.806778 0.286520 0.000000 0.000000 0.000000 -2.557616 0.446514 -3.340951 -5.343474 -2.531223 -3.314650 0.000000 0.000000 0.000000
